<svg width="93" height="67" viewBox="0 0 93 67" fill="none" xmlns="http://www.w3.org/2000/svg">
<g>
<path d="M68.4994 65.944C68.4994 65.944 65.6381 62.5347 63.2494 59.6046C73.6641 56.6712 77.6377 50.2563 77.6377 50.2563C74.7772 52.1538 71.7117 53.7223 68.4994 54.9321C64.7904 56.4721 60.9287 57.6149 56.9789 58.3413C50.1734 59.5913 43.1947 59.5646 36.3989 58.2626C32.4015 57.5202 28.4891 56.3769 24.7209 54.8501C22.7275 54.0866 20.7892 53.1865 18.9197 52.1562C18.6802 51.9987 18.4439 51.9199 18.2044 51.7591C18.0436 51.6804 17.9648 51.6016 17.8763 51.6016C16.4456 50.8076 15.6516 50.253 15.6516 50.253C15.6516 50.253 19.4644 56.5169 29.5575 59.5258C27.172 62.538 24.232 66.026 24.232 66.026C6.67406 65.4715 0 54.0593 0 54.0593C0 28.774 11.4417 8.24647 11.4417 8.24647C22.8834 -0.235564 33.6886 0.00396702 33.6886 0.00396702L34.4827 0.955528C20.1797 4.99803 13.6664 11.2587 13.6664 11.2587C13.6664 11.2587 15.412 10.3071 18.352 9.03725C26.8538 5.31303 33.6098 4.36147 36.3989 4.04647C36.844 3.95395 37.2964 3.90015 37.7508 3.88568C43.075 3.19484 48.4626 3.14196 53.7994 3.72818C62.1789 4.69074 70.297 7.2468 77.7164 11.2587C77.7164 11.2587 71.4394 5.30318 57.9305 1.26725L59.0428 0.000682564C59.0428 0.000682564 69.9267 -0.238847 81.293 8.25631C81.293 8.25631 92.7347 28.7838 92.7347 54.0691C92.7347 53.9772 86.0573 65.3894 68.4994 65.944Z M31.5525 29.2563C27.0244 29.2563 23.4478 33.1413 23.4478 37.9746C23.4478 42.8079 27.1031 46.6929 31.5525 46.6929C36.0806 46.6929 39.6572 42.8112 39.6572 37.9746C39.7392 33.1315 36.0806 29.2563 31.5525 29.2563ZM60.5522 29.2563C56.0241 29.2563 52.4475 33.1413 52.4475 37.9746C52.4475 42.8079 56.1028 46.6929 60.5522 46.6929C65.0836 46.6929 68.6569 42.8112 68.6569 37.9746C68.6569 33.138 65.0048 29.2563 60.5522 29.2563Z" fill="white"/>
</g>
</svg>
