<svg width="83" height="81" viewBox="0 0 83 81" fill="none" xmlns="http://www.w3.org/2000/svg">
<path fill-rule="evenodd" clip-rule="evenodd" d="M82.1875 40.7452C82.1875 18.2763 63.9689 0.0577087 41.5 0.0577087C19.0311 0.0577087 0.8125 18.2763 0.8125 40.7452C0.8125 61.0526 15.6889 77.8853 35.1426 80.9405V52.5101H24.809V40.7452H35.1426V31.7812C35.1426 21.5858 41.2185 15.9494 50.5112 15.9494C54.9632 15.9494 59.6205 16.745 59.6205 16.745V26.7589H54.4873C49.4359 26.7589 47.8556 29.894 47.8556 33.1163V40.7452H59.1391L57.3372 52.5101H47.8574V80.9441C67.3111 77.8907 82.1875 61.0581 82.1875 40.7452V40.7452Z" fill="white"/>
</svg>
