<svg width="94" height="76" viewBox="0 0 94 76" fill="none" xmlns="http://www.w3.org/2000/svg">
<path class="twitter-svg" d="M93.875 9.38672C90.3583 10.9148 86.6375 11.9214 82.8301 12.375C86.8314 10.032 89.8405 6.3097 91.293 1.90625C87.51 4.11834 83.378 5.67045 79.0742 6.49609C77.2619 4.59674 75.0823 3.08575 72.6678 2.05497C70.2534 1.02419 67.6546 0.495147 65.0293 0.499999C54.4004 0.499999 45.7988 8.97656 45.7988 19.4258C45.7913 20.8792 45.9578 22.3283 46.2949 23.7422C38.6732 23.3849 31.21 21.4406 24.3828 18.0337C17.5555 14.6268 11.5146 9.83234 6.64648 3.95703C4.93862 6.83617 4.03541 10.1212 4.03125 13.4687C4.03125 20.0312 7.45508 25.832 12.625 29.2305C9.56197 29.1578 6.5617 28.3471 3.87891 26.8672V27.1016C3.87891 36.2813 10.5195 43.918 19.3086 45.6563C17.6558 46.0968 15.9527 46.3201 14.2422 46.3203C13.0285 46.3224 11.8175 46.2047 10.627 45.9687C13.0703 53.4883 20.1816 58.957 28.6055 59.1133C21.7605 64.3885 13.3567 67.2397 4.71484 67.2188C3.18089 67.2165 1.64837 67.1252 0.125 66.9453C8.91637 72.559 19.1356 75.5284 29.5664 75.5C64.9883 75.5 84.3398 46.6523 84.3398 21.6328C84.3398 20.8125 84.3184 19.9922 84.2793 19.1914C88.0353 16.5196 91.2848 13.1994 93.875 9.38672V9.38672Z" fill="white"/>
</svg>
